# xmcd
#
# Track frame offsets: 
#        150
#        13994
#        27019
#        38691
#        51850
#        67720
#        84964
#        99349
#        112808
#        126023
#        138415
#        151529
#        163194
#        176201
#        187930
#        200172
#        214289
#        227229
#        241523
#        252340
#        263632
#        278669
#        289509
#
# Disc length: 3984 seconds
#
# Revision: 0
# Processed by: cddbd v1.5.2PL0 Copyright (c) Steve Scherf et al.
# Submitted via: ExactAudioCopy v1.0b3
#
DISCID=2e0f8e17
DTITLE=Rev. Utah Smith and Rev. Lonnie Farris - Electric and Slide Guitar 
DTITLE=Gospel
DYEAR=1993
DGENRE=Gospel
TTITLE0=Rev. Utah Smith -  I Want Two Wings
TTITLE1=Rev. Utah Smith - God's Mighty Hand
TTITLE2=Rev. Utah Smith - Two Wings
TTITLE3=Rev. Utah Smith - Take A Trip
TTITLE4=Rev. Utah Smith - I Got Two Wings
TTITLE5=Rev. Utah Smith - Glory To Jesus, I'm Free
TTITLE6=Rev. Lonnie Farris - Walk To Thee
TTITLE7=Rev. Lonnie Farris - Soldiers Of The Cross
TTITLE8=Rev. Lonnie Farris - What Mother Can Do
TTITLE9=Rev. Lonnie Farris - Golden Street
TTITLE10=Rev. Lonnie Farris - A Closer Walk To Thee
TTITLE11=Rev. Lonnie Farris - It's a Blessing To Call His Name
TTITLE12=Rev. Lonnie Farris - Peace In The Valley
TTITLE13=Rev. Lonnie Farris - I'm So HappyAnd Free The Lord Save Me
TTITLE14=Rev. Lonnie Farris - They Are Ringing Them Bells
TTITLE15=Rev. Lonnie Farris - Walk Around
TTITLE16=Rev. Lonnie Farris - In Your Kingdom
TTITLE17=Rev. Lonnie Farris - In the Clover Field
TTITLE18=Rev. Lonnie Farris - A Night At The House Of Prayer
TTITLE19=Rev. Lonnie Farris - Wondering Child Mother Is Dead
TTITLE20=Rev. Lonnie Farris - Peace In The Valley
TTITLE21=Rev. Lonnie Farris - His Love
TTITLE22=Rev. Lonnie Farris - The Holy Spirit
EXTD=
EXTT0=
EXTT1=
EXTT2=
EXTT3=
EXTT4=
EXTT5=
EXTT6=
EXTT7=
EXTT8=
EXTT9=
EXTT10=
EXTT11=
EXTT12=
EXTT13=
EXTT14=
EXTT15=
EXTT16=
EXTT17=
EXTT18=
EXTT19=
EXTT20=
EXTT21=
EXTT22=
PLAYORDER=
